<?xml version="1.0" standalone="no"?>
<!DOCTYPE svg PUBLIC "-//W3C//DTD SVG 20010904//EN"
 "http://www.w3.org/TR/2001/REC-SVG-20010904/DTD/svg10.dtd">
<svg version="1.0" xmlns="http://www.w3.org/2000/svg"
 width="714.000000pt" height="758.000000pt" viewBox="0 0 714.000000 758.000000"
 preserveAspectRatio="xMidYMid meet">

<g transform="translate(0.000000,758.000000) scale(0.100000,-0.100000)"
fill="#000000" stroke="none">
<path d="M4072 7524 c-92 -16 -208 -54 -292 -94 -36 -17 -56 -28 -45 -24 11 4
63 21 116 39 98 33 236 62 246 51 4 -3 -2 -6 -13 -6 -34 0 -251 -78 -335 -120
-45 -23 -87 -39 -95 -36 -8 3 -13 0 -11 -6 3 -16 -91 -61 -137 -66 -53 -5
-104 -31 -85 -43 20 -12 2 -11 -22 1 -10 6 -19 7 -19 2 0 -12 -66 -39 -115
-47 -22 -4 -46 -12 -54 -18 -10 -8 -15 -9 -18 -1 -2 6 -17 9 -33 6 -17 -2 -27
-9 -24 -14 4 -6 1 -9 -7 -6 -7 2 -21 -4 -29 -15 -14 -16 -20 -18 -38 -8 -26
14 -65 15 -57 1 3 -5 16 -10 28 -10 17 0 19 -2 7 -10 -9 -5 -19 -5 -26 0 -14
12 -24 2 -17 -16 6 -17 -11 -18 -40 -3 -18 10 -23 8 -35 -10 -8 -11 -23 -21
-33 -21 -19 0 -22 -22 -6 -46 8 -13 -20 -41 -30 -30 -3 3 -1 6 5 6 7 0 12 5
12 10 0 14 -27 12 -33 -2 -3 -7 -6 -3 -6 10 -1 12 -5 22 -11 22 -14 0 -12 -48
5 -94 7 -21 9 -34 3 -28 -8 8 -15 6 -26 -4 -8 -8 -20 -13 -27 -10 -7 2 -15 -5
-18 -16 -6 -20 -34 -20 -30 1 2 6 -2 11 -7 11 -6 0 -10 -7 -10 -16 0 -16 -36
-54 -51 -54 -4 0 -11 5 -14 10 -3 6 1 10 10 10 10 0 13 5 9 12 -5 8 -13 5 -25
-10 -9 -12 -28 -22 -41 -22 -22 -1 -22 -1 -3 -13 28 -17 28 -32 0 -47 -14 -7
-25 -18 -25 -24 0 -6 -5 -4 -11 4 -8 12 -9 11 -5 -6 8 -26 -42 -74 -54 -53 -5
7 -16 14 -24 15 -12 2 -15 -5 -12 -30 3 -23 0 -33 -10 -33 -10 0 -11 4 -3 14
8 9 8 13 1 13 -6 0 -14 -4 -17 -10 -3 -5 -14 -10 -24 -10 -19 0 -61 -51 -61
-75 0 -8 -12 -38 -26 -65 -14 -27 -23 -53 -20 -58 3 -6 -1 -15 -9 -22 -8 -7
-12 -16 -9 -21 3 -5 2 -9 -3 -8 -26 4 -35 -3 -30 -23 3 -13 2 -32 -3 -43 -8
-23 -3 -45 12 -45 6 0 8 11 6 25 -6 29 7 43 16 18 8 -19 -22 -103 -37 -103 -6
0 -7 -3 -3 -7 4 -5 13 -8 19 -8 19 0 20 -32 1 -39 -9 -4 -20 -4 -23 0 -11 11
-5 229 8 284 7 30 33 98 58 150 37 76 60 109 117 166 66 65 160 130 203 139
10 2 36 11 58 19 l40 16 -43 -6 -44 -6 16 30 c8 16 38 55 66 86 129 140 301
241 498 291 67 17 272 35 332 29 34 -3 33 -3 -10 13 -75 27 -263 22 -373 -11
-223 -66 -434 -224 -512 -384 -24 -49 -35 -61 -59 -66 -82 -17 -218 -122 -287
-223 -38 -55 -88 -169 -89 -200 0 -13 -4 -23 -9 -23 -11 0 2 63 28 130 26 69
66 135 115 189 l40 46 -43 -40 c-60 -55 -135 -172 -162 -253 -17 -49 -25 -101
-29 -197 -5 -92 -15 -159 -33 -230 -21 -79 -27 -123 -27 -210 0 -100 16 -208
27 -178 3 8 14 1 30 -17 29 -35 49 -40 32 -7 -11 20 -11 21 4 8 21 -17 22 -41
2 -67 -21 -27 -18 -55 5 -61 11 -3 20 -7 20 -9 0 -1 -7 -31 -15 -66 -16 -70
-13 -267 6 -388 20 -131 82 -292 144 -375 21 -28 21 -35 12 -115 -12 -104 6
-172 58 -224 18 -19 42 -51 54 -73 11 -22 27 -45 35 -52 9 -8 16 -20 16 -27 0
-21 31 -94 40 -94 5 0 6 18 3 40 -4 28 -2 40 7 40 13 0 11 -62 -11 -260 -8
-81 -13 -97 -32 -109 -51 -34 -166 -162 -212 -236 -27 -44 -69 -98 -94 -120
-24 -22 -66 -73 -93 -114 -62 -95 -216 -410 -298 -608 -34 -84 -68 -153 -74
-153 -21 0 -168 -76 -291 -150 -214 -129 -500 -336 -735 -533 -114 -95 -253
-220 -205 -185 11 8 90 67 175 130 230 170 327 239 540 382 145 97 141 89 -20
-47 -385 -324 -609 -564 -655 -705 -10 -29 -21 -52 -26 -52 -5 0 -15 12 -23
28 -8 15 -15 23 -16 19 0 -5 5 -18 11 -29 10 -18 7 -29 -12 -64 -12 -24 -31
-45 -41 -47 -10 -3 -18 -13 -18 -24 -1 -21 -50 -105 -50 -84 0 30 -13 0 -15
-36 -1 -20 -7 -39 -12 -40 -6 -2 -8 -15 -5 -28 3 -18 0 -25 -11 -25 -26 0 -42
-31 -39 -76 1 -24 -3 -44 -8 -44 -6 0 -10 8 -10 18 0 14 -2 15 -10 2 -5 -8 -6
-17 -2 -20 13 -9 13 -33 1 -41 -19 -11 -19 -51 0 -44 11 4 10 1 -3 -14 -15
-16 -16 -24 -7 -35 7 -9 8 -17 2 -20 -5 -3 -11 -3 -14 1 -2 5 -2 2 0 -5 1 -8
3 -29 3 -48 0 -19 4 -34 9 -34 4 0 6 11 3 25 -2 15 0 25 7 25 6 0 11 8 11 19
0 10 7 25 17 32 15 13 15 12 4 -8 -6 -13 -9 -23 -5 -23 4 0 0 -8 -9 -18 -10
-11 -14 -26 -10 -40 4 -17 1 -22 -13 -22 -14 0 -19 -7 -18 -28 0 -16 3 -33 5
-38 2 -5 4 -28 4 -52 0 -26 4 -41 11 -38 6 2 9 -7 6 -25 -4 -28 -5 -28 -19
-12 -8 10 -12 12 -8 6 3 -7 3 -18 -1 -25 -4 -6 -8 -23 -9 -37 -1 -14 -5 -33
-9 -42 -5 -11 1 -19 20 -28 15 -6 24 -14 21 -18 -4 -3 -13 0 -22 7 -18 15 -19
10 -3 -27 6 -15 10 -34 9 -40 -1 -7 3 -13 9 -13 6 0 8 -5 4 -11 -3 -6 3 -24
15 -40 23 -30 27 -44 11 -34 -6 3 -10 2 -10 -3 0 -6 6 -12 14 -15 9 -4 13 -14
9 -29 -4 -18 -3 -20 6 -8 9 13 11 12 12 -5 1 -11 3 -24 4 -30 2 -5 4 -14 5
-20 1 -5 5 -1 10 10 7 17 9 16 9 -10 1 -23 4 -27 11 -15 6 9 10 10 10 3 0 -6
9 -15 21 -18 12 -4 18 -13 15 -20 -3 -8 0 -15 7 -18 7 -2 12 -12 12 -23 0 -10
5 -18 12 -17 17 3 24 -24 7 -31 -19 -7 -18 -26 2 -26 8 0 12 4 9 10 -3 5 -1
10 4 10 6 0 11 -4 11 -10 0 -7 493 -10 1459 -10 1321 0 1459 1 1465 16 9 23 7
54 -2 54 -5 0 -9 15 -10 33 -1 17 -6 64 -12 102 -5 39 -13 90 -16 115 -4 25
-10 50 -14 55 -4 6 -10 23 -14 39 -6 25 -5 28 7 17 28 -23 28 18 0 60 -20 31
-24 42 -14 48 10 6 9 10 -3 14 -17 7 -22 37 -6 37 6 0 10 -5 10 -11 0 -6 6 -9
14 -6 8 3 17 -1 20 -9 9 -24 26 -6 26 27 0 16 4 29 9 29 12 0 23 -29 15 -41
-12 -20 8 -26 47 -13 38 14 42 13 59 -6 20 -23 50 -27 50 -5 0 8 4 15 9 15 5
0 11 -7 15 -15 3 -9 18 -15 39 -15 20 0 47 -10 67 -25 19 -14 41 -23 50 -20 9
3 25 -4 35 -15 12 -14 14 -20 5 -20 -7 0 -18 6 -24 14 -9 11 -17 12 -36 3 -24
-10 -25 -11 -3 -14 15 -3 26 -16 33 -39 7 -20 18 -38 26 -41 21 -8 43 15 37
40 -4 18 -1 17 16 -8 11 -16 16 -32 11 -33 -22 -8 -9 -32 18 -32 l27 -1 -30
-13 -30 -13 23 -12 c12 -6 22 -18 22 -26 0 -8 8 -18 17 -23 12 -7 17 -24 17
-66 1 -50 -1 -55 -18 -50 -12 4 -16 2 -11 -5 3 -6 -3 -20 -15 -29 l-22 -18 26
-17 c14 -10 26 -23 26 -31 0 -7 8 -20 18 -29 17 -16 129 -17 1406 -17 1097 0
1390 3 1399 13 7 6 13 23 15 37 2 14 7 36 12 50 8 22 35 166 40 210 10 94 1
448 -12 473 -7 14 -1 25 26 52 20 19 36 40 36 47 0 9 -3 8 -11 -2 -8 -12 -9
-11 -6 5 2 11 8 19 15 18 13 -3 9 117 -4 139 -5 7 -9 20 -9 28 0 8 -6 16 -12
16 -33 4 -36 7 -13 14 17 5 19 8 8 9 -10 1 -18 8 -18 16 0 8 -6 15 -12 15 -9
0 -8 4 2 10 13 8 12 10 -2 10 -11 0 -18 8 -18 20 0 11 -7 20 -15 20 -18 0 -20
16 -2 23 10 4 10 6 0 6 -8 1 -13 15 -13 35 0 19 -4 38 -10 41 -10 6 -14 -7
-11 -32 3 -21 -17 -15 -24 7 -4 11 -11 18 -16 15 -5 -4 -9 0 -10 7 0 7 -3 6
-7 -4 -5 -12 -11 -15 -22 -8 -12 7 -11 12 5 29 10 12 15 24 12 28 -4 3 -7 1
-7 -5 0 -6 -7 -9 -15 -6 -10 4 -15 0 -16 -12 0 -12 -3 -14 -6 -6 -3 7 0 18 5
25 8 9 3 12 -18 13 -19 1 -27 -3 -23 -12 4 -10 0 -11 -20 -1 -22 10 -23 13 -8
24 15 11 15 12 0 13 -9 0 -20 7 -23 16 -9 24 -7 36 6 28 7 -4 8 -3 4 4 -4 7
-17 12 -29 12 -18 0 -19 -2 -7 -10 10 -7 11 -10 2 -10 -7 0 -15 6 -18 14 -3 7
-16 14 -29 14 -15 0 -22 -5 -18 -12 3 -6 2 -7 -3 -3 -5 5 -9 14 -9 20 0 7 -8
12 -17 12 -9 0 -20 4 -24 8 -4 4 -18 7 -31 7 -13 0 -24 6 -24 15 -3 28 -4 33
-11 41 -5 4 -8 -1 -8 -12 -1 -19 -1 -19 -15 0 -8 11 -15 17 -15 14 0 -3 -24
17 -52 45 -71 67 -73 68 -151 107 -38 19 -77 43 -87 52 -11 10 -23 18 -27 18
-5 0 -23 14 -41 30 -18 17 -35 30 -38 30 -7 0 -31 21 -56 48 -12 12 -27 22
-34 22 -8 0 -11 6 -7 17 4 11 3 14 -5 9 -8 -4 -16 2 -21 16 l-10 23 0 -22 c-1
-25 -15 -30 -27 -11 -4 6 -3 8 4 4 6 -4 10 1 9 12 0 11 -8 19 -17 18 -9 -1
-16 9 -18 23 -3 17 0 21 10 15 10 -6 10 -4 -1 9 -17 22 -32 22 -24 1 4 -12 1
-15 -13 -12 -10 2 -18 10 -16 17 1 7 -1 10 -6 7 -5 -3 -16 4 -25 15 -9 10 -26
19 -36 19 -11 0 -28 11 -39 25 -14 18 -22 22 -26 13 -3 -7 -3 -2 0 11 5 17 3
21 -6 16 -9 -6 -11 -4 -5 5 7 12 -10 30 -30 30 -5 0 -3 -5 5 -10 13 -8 13 -10
-2 -10 -10 0 -19 11 -23 30 -4 16 -11 30 -16 30 -5 0 -9 9 -9 20 0 11 -5 20
-12 20 -6 0 -8 3 -5 6 9 9 38 -16 31 -27 -3 -5 2 -6 11 -3 10 4 42 -10 83 -38
37 -24 79 -52 94 -61 28 -17 29 -54 2 -43 -25 9 -89 19 -82 12 3 -4 14 -9 25
-11 10 -2 20 -4 23 -6 3 -1 12 -3 20 -3 8 -1 14 -7 13 -14 -2 -6 4 -9 12 -6 8
4 13 9 11 13 -3 4 -1 13 4 21 12 19 96 -37 828 -548 85 -59 177 -125 205 -148
29 -22 73 -55 99 -74 l47 -33 41 26 c22 15 44 27 49 27 12 0 18 -41 32 -245 7
-93 15 -176 19 -184 11 -20 24 226 17 320 -8 123 -42 164 -102 125 -13 -9 -28
-16 -33 -16 -5 0 -40 24 -78 53 -87 68 -247 178 -649 448 -521 350 -673 440
-860 508 l-70 26 -135 266 c-74 147 -152 296 -173 333 -44 76 -118 171 -165
210 -25 22 -32 36 -32 63 0 30 10 47 70 110 39 41 76 85 82 98 6 13 18 25 27
28 10 2 25 21 35 41 9 20 19 36 22 36 3 0 2 -4 -1 -10 -3 -5 -4 -10 -2 -10 3
0 24 32 48 71 24 39 63 100 86 137 60 92 127 233 153 321 25 80 72 167 105
191 50 36 131 120 168 174 79 116 175 360 185 470 4 49 12 69 43 110 21 27 61
88 89 135 28 47 74 113 101 146 156 188 169 391 38 617 -55 95 -181 221 -279
278 -41 24 -76 45 -78 46 -2 1 6 17 17 35 33 56 51 146 50 244 -2 124 -16 178
-18 66 -1 -104 -22 -193 -68 -289 -25 -54 -39 -72 -51 -70 -21 5 -19 61 6 133
13 37 17 83 17 180 0 141 -9 182 -67 300 -42 85 -55 94 -18 11 40 -87 60 -179
60 -275 0 -91 -6 -89 -14 4 -5 54 -11 74 -27 87 -23 19 -31 50 -16 59 11 8 -5
43 -18 37 -4 -1 -9 9 -11 24 -1 16 -6 38 -10 50 -6 21 -7 21 -21 -5 -8 -15
-18 -25 -23 -22 -13 8 -13 -2 0 -26 11 -19 4 -25 -16 -11 -6 4 -25 36 -43 72
-17 36 -49 86 -71 110 -47 54 -53 49 -9 -6 39 -48 66 -101 90 -173 18 -56 12
-88 -12 -64 -8 8 -8 13 0 17 6 4 11 12 11 18 0 6 -3 8 -7 5 -10 -11 -43 24
-43 45 0 19 -17 58 -29 68 -11 9 -29 53 -46 115 -32 110 -82 202 -153 277
-146 155 -336 251 -576 293 -107 18 -312 18 -414 -1z m413 -39 c150 -24 290
-80 414 -165 87 -60 124 -98 118 -121 -4 -16 -3 -18 8 -9 9 8 15 8 20 0 3 -5
-1 -13 -10 -16 -10 -4 -14 -14 -10 -28 6 -21 6 -21 -7 -1 -26 42 -72 85 -89
85 -10 0 -20 4 -24 9 -3 5 -18 12 -33 16 -16 3 -46 23 -68 44 -21 22 -43 37
-48 33 -5 -3 -6 0 -2 6 7 11 -27 36 -37 26 -3 -3 -16 6 -30 20 -19 19 -32 24
-54 19 -15 -3 -37 -5 -48 -5 -16 1 -15 -2 8 -14 15 -8 33 -12 40 -8 6 4 9 3 4
-1 -4 -5 1 -17 10 -28 17 -18 17 -19 -29 -14 -25 3 -55 10 -65 15 -29 14 -95
14 -106 0 -6 -10 -7 -9 -4 4 7 20 -16 31 -33 15 -10 -9 -11 -9 -6 0 9 16 -35
13 -46 -2 -5 -6 -11 -5 -17 4 -12 18 -104 23 -97 5 3 -7 1 -16 -4 -19 -5 -3
-11 4 -15 15 -3 11 -10 20 -15 20 -14 0 -21 -33 -8 -42 9 -5 6 -8 -8 -8 -23 0
-28 28 -9 42 6 5 6 8 -2 8 -6 0 -15 -4 -18 -10 -3 -5 -13 -10 -21 -10 -8 0
-13 3 -11 8 3 4 -6 8 -19 8 -27 2 -31 -11 -9 -32 18 -18 19 -34 3 -34 -6 0 -9
3 -5 6 3 4 0 13 -8 21 -8 8 -15 24 -15 36 -1 18 -2 19 -10 7 -5 -10 -22 -15
-49 -14 -34 1 -41 -2 -41 -19 0 -16 -3 -17 -15 -7 -8 7 -12 16 -9 21 3 5 -4 8
-16 6 -12 -2 -25 -9 -29 -16 -4 -6 -15 -9 -24 -5 -19 7 -22 -3 -8 -25 5 -7 14
-11 20 -7 7 5 9 1 5 -8 -3 -9 -9 -16 -13 -16 -7 0 -25 30 -34 60 -5 13 -6 13
-6 0 -1 -9 -16 -23 -34 -33 -24 -13 -33 -25 -35 -47 -1 -17 2 -30 8 -30 5 0
10 5 10 11 0 8 4 8 14 0 18 -16 49 -3 42 18 -5 13 -4 13 7 -1 8 -10 16 -16 18
-13 4 3 147 9 159 6 3 -1 58 -3 123 -5 140 -4 169 -16 41 -17 -49 0 -110 -2
-136 -5 -53 -4 -195 -36 -253 -57 -37 -13 -87 -14 -187 -3 -21 2 -38 0 -38 -5
0 -5 -4 -9 -10 -9 -5 0 -10 4 -10 10 0 9 55 27 110 36 56 10 93 26 79 35 -11
7 -12 12 -1 29 6 11 12 22 12 25 0 10 -22 5 -36 -9 -10 -11 -11 -15 -1 -19 6
-2 9 -8 5 -12 -4 -4 -19 0 -34 10 -15 9 -24 13 -20 7 4 -6 -2 -8 -14 -5 -18 5
-12 11 32 37 127 76 317 142 446 153 70 6 95 18 50 25 -13 2 27 4 87 5 61 1
151 -4 200 -12z m-545 -135 c0 -5 -4 -10 -10 -10 -5 0 -10 5 -10 10 0 6 5 10
10 10 6 0 10 -4 10 -10z m103 -10 c-3 -12 -8 -19 -11 -16 -5 6 5 36 12 36 2 0
2 -9 -1 -20z m47 -10 c0 -5 -4 -10 -9 -10 -6 0 -13 5 -16 10 -3 6 1 10 9 10 9
0 16 -4 16 -10z m-110 -10 c0 -5 -4 -10 -10 -10 -5 0 -10 5 -10 10 0 6 5 10
10 10 6 0 10 -4 10 -10z m555 -11 c11 -16 1 -19 -13 -3 -7 8 -8 14 -3 14 5 0
13 -5 16 -11z m178 -10 c20 -7 37 -17 37 -22 0 -4 5 -5 10 -2 10 6 72 -31 78
-47 2 -4 10 -8 17 -8 13 0 115 -92 115 -104 0 -3 10 -16 23 -30 31 -34 47 -54
47 -60 0 -11 66 -102 83 -115 11 -7 25 -28 33 -46 13 -33 9 -79 -7 -69 -5 3
-6 10 -3 16 5 7 2 8 -5 4 -7 -5 -10 -15 -7 -23 3 -8 1 -11 -5 -8 -5 4 -8 12
-6 18 5 17 -9 29 -121 102 -37 24 -112 106 -112 122 0 12 -3 14 -8 6 -11 -17
-37 1 -27 18 6 11 5 12 -5 2 -11 -10 -20 -6 -47 23 -19 21 -39 34 -47 31 -8
-3 -17 1 -20 10 -4 9 -13 13 -22 9 -8 -3 -33 6 -54 20 -22 15 -46 24 -55 20
-9 -3 -13 -2 -10 4 3 5 -11 16 -31 25 -42 17 -58 19 -49 5 8 -13 -5 -13 -25 0
-11 7 -11 10 -2 10 7 0 10 5 7 10 -3 6 -13 10 -21 10 -8 0 -12 -4 -9 -10 3 -5
-1 -10 -10 -10 -10 0 -13 5 -9 12 4 6 3 8 -4 5 -13 -9 -44 2 -37 13 2 4 15 6
27 6 13 -1 31 2 41 6 10 5 17 5 17 -1 0 -7 9 -7 25 -1 16 6 25 6 25 0 0 -5 15
-9 33 -8 33 1 146 -26 184 -45 13 -6 25 -8 27 -6 8 7 -60 75 -98 98 -35 22
-48 38 -23 28 6 -2 29 -10 50 -18z m-247 -4 c13 -13 13 -15 1 -15 -8 0 -17 7
-21 15 -3 8 -3 15 0 15 3 0 12 -7 20 -15z m-511 -5 c3 -5 -1 -10 -9 -10 -9 0
-16 5 -16 10 0 6 4 10 9 10 6 0 13 -4 16 -10z m415 6 c0 -3 -4 -8 -10 -11 -5
-3 -10 -1 -10 4 0 6 5 11 10 11 6 0 10 -2 10 -4z m57 -32 c-3 -3 -12 -4 -19
-1 -8 3 -5 6 6 6 11 1 17 -2 13 -5z m-39 -29 c-6 -6 -58 8 -58 16 0 4 14 3 31
-3 16 -6 29 -12 27 -13z m-33 -40 c133 -25 328 -116 310 -146 -4 -5 2 -6 11
-2 11 4 15 3 10 -5 -3 -6 -1 -14 5 -18 8 -4 9 -3 5 4 -4 7 -3 12 2 12 16 0
124 -119 117 -130 -3 -5 0 -7 9 -4 13 5 33 -29 28 -49 -1 -5 2 -6 7 -3 5 3 21
-11 37 -32 l27 -37 -29 28 c-17 15 -39 27 -50 27 -24 0 -56 32 -52 51 2 9 -5
13 -18 12 -12 -1 -30 7 -39 17 -10 11 -25 20 -34 20 -13 1 -12 3 3 15 16 12
17 18 8 27 -9 9 -15 9 -24 -1 -11 -10 -9 -11 7 -5 19 6 19 6 3 -11 -15 -16
-18 -16 -39 -1 -13 9 -20 16 -16 16 5 0 5 5 1 11 -4 7 -10 7 -16 1 -9 -9 -100
16 -106 30 -2 4 -20 4 -40 1 -28 -3 -33 -2 -22 6 12 9 11 11 -7 11 -12 0 -25
5 -28 10 -3 6 -19 10 -34 10 -15 0 -31 4 -36 8 -6 5 -46 17 -90 26 -44 10 -98
24 -120 32 -23 8 -57 14 -77 14 -39 0 -88 18 -88 32 0 4 -7 8 -16 8 -8 0 -13
-3 -11 -7 3 -5 -19 -8 -48 -8 -53 0 -52 12 2 19 15 2 35 6 43 10 67 29 255 29
405 1z m-812 -22 c-7 -2 -19 -2 -25 0 -7 3 -2 5 12 5 14 0 19 -2 13 -5z m-583
-147 c0 -2 -7 -6 -15 -10 -8 -3 -15 -1 -15 4 0 6 7 10 15 10 8 0 15 -2 15 -4z
m1865 -36 c10 -11 14 -20 9 -20 -5 0 -15 9 -22 20 -7 11 -11 20 -9 20 2 0 12
-9 22 -20z m-188 -36 c-3 -3 -12 -4 -19 -1 -8 3 -5 6 6 6 11 1 17 -2 13 -5z
m120 -77 c5 -9 3 -9 -8 0 -8 6 -16 11 -19 11 -15 -2 -50 15 -45 22 3 4 -4 10
-15 13 -11 3 -20 10 -20 16 0 12 96 -44 107 -62z m123 41 c0 -6 -6 -5 -15 2
-8 7 -15 14 -15 16 0 2 7 1 15 -2 8 -4 15 -11 15 -16z m-578 -12 c5 4 20 2 31
-4 12 -6 45 -18 72 -28 28 -10 72 -31 98 -46 26 -15 50 -28 53 -28 5 0 31 -20
82 -61 6 -5 12 -14 12 -20 0 -6 -7 -3 -16 5 -8 9 -20 16 -25 16 -5 0 -20 9
-32 20 -20 19 -22 20 -29 3 -6 -17 -7 -17 -7 1 -1 12 -6 16 -16 12 -8 -3 -14
0 -12 6 1 6 -14 13 -33 15 -19 3 -42 9 -51 14 -10 5 -29 9 -42 9 -13 0 -62 13
-108 29 -46 16 -101 32 -122 36 -54 10 -38 18 46 23 39 2 74 6 77 9 2 2 6 -1
8 -6 2 -6 8 -8 14 -5z m488 -10 c0 -3 -4 -8 -10 -11 -5 -3 -10 -1 -10 4 0 6 5
11 10 11 6 0 10 -2 10 -4z m-2039 -159 c-10 -9 -11 -8 -5 6 3 10 9 15 12 12 3
-3 0 -11 -7 -18z m1651 -32 c70 -21 114 -59 215 -178 43 -51 80 -94 83 -97 3
-3 32 -38 64 -78 128 -158 242 -241 356 -261 30 -5 69 -14 85 -20 17 -6 42
-13 56 -16 l26 -5 6 -142 c3 -81 19 -223 36 -328 27 -167 32 -226 15 -174 -25
80 -52 89 -244 80 -74 -4 -173 -7 -220 -8 -47 0 -91 -5 -97 -10 -9 -7 -13 -7
-13 0 0 6 -13 10 -30 10 -17 -1 -30 -6 -30 -14 0 -7 -4 -15 -9 -19 -12 -7 1
41 23 83 20 39 7 43 -16 5 l-17 -28 -2 40 c-1 27 -3 32 -6 15 -13 -76 -72
-215 -119 -277 -13 -17 -24 -34 -24 -38 0 -6 -40 -66 -51 -75 -3 -3 -39 -57
-80 -120 -71 -107 -138 -245 -154 -315 -9 -42 8 -20 28 35 9 25 26 60 38 79
19 31 23 33 61 27 22 -4 52 -13 67 -21 15 -7 88 -28 162 -45 139 -33 277 -43
329 -23 20 8 6 12 -75 22 -55 7 -121 17 -146 22 l-46 10 19 37 c13 26 17 47
13 72 -9 49 -12 51 -45 32 -24 -14 -31 -15 -42 -4 -11 11 -9 16 6 28 11 8 28
14 39 14 13 0 17 5 13 15 -4 12 5 15 48 15 63 0 102 -12 179 -57 47 -28 62
-44 86 -91 20 -40 38 -61 60 -70 77 -33 62 38 -31 146 -16 18 -26 37 -23 42 7
11 -66 70 -120 98 -22 12 -33 21 -25 22 12 0 12 2 -2 10 -9 6 -51 13 -92 17
-42 3 -76 10 -76 14 0 5 -4 9 -10 9 -5 0 -7 -6 -4 -14 4 -10 -9 -15 -48 -19
-29 -3 -62 -8 -73 -12 -20 -7 -20 -6 -1 9 11 9 17 16 13 16 -4 0 -3 9 3 20 6
11 16 17 22 14 6 -4 8 -3 4 4 -3 6 8 38 25 70 30 59 31 59 65 52 19 -4 37 -4
40 1 6 10 32 8 51 -4 6 -4 35 -2 64 4 96 21 335 -13 429 -61 46 -24 103 -116
102 -168 0 -20 -13 -66 -29 -102 -70 -153 -88 -245 -69 -347 5 -27 3 -56 -4
-79 -8 -24 -9 -39 -2 -43 6 -4 7 -26 0 -66 -5 -33 -11 -76 -12 -95 -5 -66 -6
-70 -17 -70 -5 0 -7 5 -4 10 3 6 1 10 -4 10 -11 0 -15 -26 -11 -63 1 -10 -7
-28 -17 -40 -10 -11 -13 -18 -7 -14 7 4 8 -10 1 -48 -9 -47 -12 -52 -23 -37
-8 11 -9 19 -2 23 5 3 2 9 -8 13 -10 4 -15 4 -11 0 4 -4 3 -12 -3 -19 -6 -7
-6 -24 1 -48 16 -60 -6 -123 -42 -119 -4 1 -10 -14 -13 -33 -9 -48 -27 -44
-23 4 3 38 2 39 -17 25 -11 -7 -22 -21 -24 -31 -4 -21 -12 -87 -13 -120 -1
-13 -7 -23 -15 -23 -8 0 -14 -10 -14 -26 0 -20 -4 -25 -16 -20 -8 3 -13 2 -10
-3 3 -4 -8 -18 -25 -30 -25 -19 -30 -20 -35 -6 -4 8 0 23 7 33 13 15 12 16 -4
3 -17 -13 -18 -12 -12 15 3 16 -19 -20 -49 -81 -53 -108 -72 -135 -40 -59 9
21 18 47 20 58 10 51 79 263 90 276 8 9 13 37 12 63 -1 54 5 65 26 48 23 -19
-6 67 -32 96 -12 14 -22 29 -22 35 0 6 -9 8 -20 5 -11 -3 -33 0 -48 5 -21 8
-36 7 -62 -4 -19 -9 -50 -21 -67 -28 -18 -7 -30 -16 -27 -21 3 -5 2 -9 -3 -8
-21 4 -33 -2 -33 -17 0 -8 -4 -13 -9 -10 -5 3 -22 -1 -37 -9 -16 -8 -36 -15
-44 -15 -8 0 -33 -7 -55 -14 -86 -30 -145 -45 -139 -35 3 6 18 15 32 21 20 8
23 12 11 15 -12 3 -16 15 -15 44 1 32 5 41 23 45 36 9 46 50 28 117 -16 60
-63 162 -71 154 -3 -3 2 -32 10 -65 18 -69 19 -75 7 -68 -4 3 -11 26 -14 50
-10 69 -81 265 -93 254 -2 -3 7 -49 21 -102 14 -54 25 -126 25 -160 l0 -61
-45 -24 c-25 -13 -45 -30 -45 -37 0 -8 -5 -14 -11 -14 -5 0 -7 5 -3 11 4 7 2
9 -7 6 -8 -3 -38 -14 -66 -23 -29 -10 -53 -21 -53 -26 0 -5 -13 -2 -29 6 -16
9 -44 15 -63 14 -33 -1 -111 28 -158 60 -14 9 -27 17 -30 17 -15 2 -68 36 -84
54 -15 16 -21 18 -28 9 -14 -22 -9 19 6 56 18 43 81 113 119 132 42 22 27 28
-22 8 -52 -20 -105 -82 -126 -144 -20 -60 -18 -150 4 -158 30 -11 131 -127
142 -163 6 -20 20 -43 31 -50 11 -8 30 -22 42 -31 21 -17 21 -17 -9 -13 -62 9
-151 33 -179 48 -22 12 -33 13 -43 5 -9 -7 -13 -7 -13 1 0 6 -10 11 -22 11
-19 -1 -45 2 -80 9 -4 0 -5 10 -3 21 5 24 2 24 -36 5 -16 -9 -35 -13 -41 -9
-6 4 -8 3 -5 -3 5 -9 -10 -20 -58 -42 -5 -2 0 7 13 21 12 13 22 30 22 37 0 7
4 10 8 7 4 -2 14 -1 22 5 11 6 12 9 2 9 -7 0 -10 5 -7 10 7 11 -8 14 -19 3
-10 -10 -46 -11 -39 0 10 17 -38 -4 -101 -44 -66 -42 -69 -44 -92 -74 -9 -11
-13 -15 -10 -10 2 6 -4 11 -14 11 -15 0 -16 -3 -8 -14 7 -8 8 -16 2 -20 -5 -4
-11 -14 -13 -22 -2 -8 -6 -22 -8 -31 -3 -11 4 -20 24 -27 15 -6 21 -11 13 -11
-18 -1 -44 -56 -36 -77 3 -8 2 -13 -2 -10 -5 3 -9 -8 -9 -24 0 -16 4 -27 9
-24 4 3 5 -2 2 -11 -4 -8 -13 -14 -22 -13 -8 2 -17 -4 -19 -12 -4 -13 -3 -13
6 0 7 9 11 10 11 3 0 -6 -4 -15 -10 -18 -15 -9 -12 -27 3 -20 6 4 3 -1 -7 -9
-11 -9 -21 -14 -23 -13 -7 8 -34 184 -29 200 2 9 0 17 -5 17 -5 0 -9 -7 -9
-15 0 -18 -20 -20 -21 -2 -2 30 3 90 11 118 5 18 5 27 -1 24 -5 -4 -9 -13 -9
-21 0 -8 -5 -14 -11 -14 -6 0 -8 -7 -5 -16 3 -8 2 -12 -4 -9 -6 3 -10 -3 -10
-13 0 -11 -7 -33 -15 -48 -21 -41 -20 -94 3 -94 14 0 15 -2 2 -10 -8 -5 -20
-10 -25 -10 -12 0 -32 43 -41 88 -4 17 -10 32 -15 32 -5 0 -9 8 -9 18 0 11 -8
29 -19 41 -10 12 -29 54 -42 94 -16 48 -25 65 -27 49 -6 -38 -22 -14 -22 33 0
24 -5 45 -10 47 -6 2 -7 14 -1 34 5 17 5 37 1 45 -11 21 -21 99 -13 99 10 0
11 56 2 65 -4 3 -12 -7 -18 -22 -6 -15 -18 -38 -25 -51 -11 -20 -14 -21 -20
-7 -10 26 -7 73 5 81 8 5 8 9 -1 14 -8 5 -9 28 -4 78 3 40 10 69 14 67 5 -3 6
4 3 15 -7 26 -9 25 -27 -7 -14 -25 -15 -26 -16 -7 0 36 12 84 20 79 7 -5 24
43 25 70 0 6 3 12 6 15 4 3 0 12 -9 20 -14 13 -15 12 -10 -2 4 -9 1 -19 -6
-21 -16 -6 -46 -88 -47 -126 0 -14 -4 -35 -9 -46 -7 -14 -8 -7 -5 25 5 51 42
165 74 227 11 23 21 46 21 50 0 14 -32 -38 -62 -100 -16 -32 -31 -58 -33 -55
-9 9 15 83 31 95 10 7 15 16 11 19 -5 5 21 58 57 116 20 33 -5 32 -35 -1 -19
-21 -28 -40 -24 -50 5 -12 3 -13 -6 -4 -13 13 1 40 74 143 l38 55 -46 -50
c-33 -35 -45 -43 -40 -27 3 12 2 22 -3 22 -6 0 -9 -11 -7 -25 1 -14 -2 -28 -7
-31 -5 -3 -6 29 -2 78 6 79 8 85 45 122 l38 40 -24 -60 c-31 -77 -41 -119 -27
-110 6 3 14 21 18 38 3 18 18 59 32 91 28 64 24 82 -11 49 -13 -12 -26 -22
-29 -22 -13 0 15 77 43 118 39 58 37 73 -5 33 -51 -50 -51 -17 1 58 24 35 42
65 40 68 -3 2 -23 -15 -46 -38 -22 -23 -41 -38 -41 -32 0 6 20 32 45 58 43 45
56 76 18 43 -10 -8 -24 -18 -31 -23 -21 -11 5 35 32 58 16 15 17 18 4 13 -24
-7 -23 -3 13 64 20 38 60 85 116 137 46 43 110 109 140 146 31 38 77 82 102
100 184 125 288 281 297 441 3 64 6 73 36 102 18 18 56 42 83 53 l50 22 -30
-26 c-72 -63 -105 -97 -105 -107 0 -6 16 5 36 25 39 38 156 103 239 132 28 9
58 21 68 27 16 8 18 6 12 -12 -6 -18 -3 -17 21 7 26 26 28 26 35 8 4 -11 8
-14 8 -7 1 6 5 12 11 12 5 0 7 -8 4 -17 -2 -10 1 -8 7 5 7 12 21 22 33 23 12
0 30 2 41 5 22 4 66 12 105 19 13 2 28 -2 32 -8 6 -9 8 -9 8 0 0 7 16 15 35
19 19 3 35 9 35 13 0 13 128 4 182 -14z m-1650 -30 c3 -14 2 -25 -2 -25 -4 0
-10 11 -12 25 -3 14 -2 25 2 25 4 0 10 -11 12 -25z m-77 -12 c-9 -8 -18 -13
-21 -10 -8 8 19 36 29 30 4 -2 0 -11 -8 -20z m-17 -60 c11 -11 11 -16 -2 -29
-9 -8 -16 -11 -16 -5 0 6 -9 11 -19 11 -14 0 -18 5 -14 20 6 22 30 23 51 3z
m592 13 c0 -2 -7 -7 -16 -10 -8 -3 -12 -2 -9 4 6 10 25 14 25 6z m-553 -60 c0
-8 -29 -32 -65 -52 -75 -44 -115 -81 -161 -147 -18 -26 -36 -45 -42 -42 -5 4
-9 1 -9 -5 0 -6 -5 -8 -11 -4 -6 3 -7 9 -3 13 5 3 19 26 31 51 13 25 23 41 23
37 0 -4 6 -2 14 5 7 7 11 18 9 25 -6 16 43 47 62 39 9 -3 13 -2 10 4 -3 6 0
11 7 12 56 6 78 18 78 41 0 14 3 18 8 10 6 -9 12 -7 22 7 17 24 27 26 27 6z
m488 -6 c6 -10 -84 -41 -97 -33 -16 9 -7 24 10 19 9 -3 28 1 42 8 31 18 37 18
45 6z m-215 -10 c0 -5 -6 -7 -14 -4 -8 3 -17 1 -21 -5 -3 -6 0 -9 7 -6 11 4
58 -27 58 -38 0 -1 -40 -3 -90 -4 -102 -3 -210 -25 -249 -51 -14 -11 -32 -22
-40 -27 -23 -13 37 62 62 78 38 24 124 48 153 42 23 -4 25 -3 9 4 -16 7 -8 10
35 13 30 2 63 5 73 6 9 1 17 -2 17 -8z m96 -1 c11 -18 -11 -30 -44 -23 -35 7
-42 20 -14 27 31 8 51 7 58 -4z m2431 -81 c-3 -8 -6 -5 -6 6 -1 11 2 17 5 13
3 -3 4 -12 1 -19z m-2650 -14 c-3 -3 -12 -4 -19 -1 -8 3 -5 6 6 6 11 1 17 -2
13 -5z m223 -4 c10 -7 11 -10 2 -10 -6 0 -35 -11 -63 -25 -29 -13 -56 -22 -60
-19 -5 3 -17 0 -26 -6 -16 -10 -16 -11 2 -5 12 4 16 3 10 -3 -24 -22 -100 -54
-230 -98 -77 -26 -148 -56 -159 -66 -10 -11 -21 -16 -25 -13 -3 4 5 16 19 27
14 11 40 32 58 46 56 47 265 148 282 137 5 -3 10 -1 10 6 0 8 4 8 15 -1 12
-10 15 -10 15 2 0 27 117 49 150 28z m-267 -7 c-7 -2 -19 -2 -25 0 -7 3 -2 5
12 5 14 0 19 -2 13 -5z m2687 -113 c0 -5 -4 -10 -10 -10 -5 0 -10 5 -10 10 0
6 5 10 10 10 6 0 10 -4 10 -10z m-2615 -106 c-45 -37 -117 -84 -129 -84 -6 0
1 8 17 18 15 9 27 20 27 24 0 5 5 8 10 8 6 0 29 14 52 30 50 36 65 39 23 4z
m60 -46 c-41 -33 -85 -59 -84 -50 0 10 102 82 107 77 3 -3 -8 -15 -23 -27z
m2727 -18 c89 -67 200 -187 249 -271 52 -87 89 -203 89 -277 0 -110 -47 -231
-121 -311 -23 -25 -33 -30 -39 -21 -5 8 -2 19 7 29 11 10 12 16 4 19 -6 2 -11
8 -11 13 0 4 7 6 16 2 14 -5 15 -3 4 16 -9 19 -9 26 5 41 26 29 39 88 23 108
-11 13 -11 15 5 9 11 -4 17 -2 17 8 0 8 -4 15 -10 15 -5 0 -10 6 -10 14 0 15
-68 119 -82 124 -4 2 -8 10 -8 17 0 8 -9 16 -19 20 -16 5 -36 53 -26 64 2 2
17 -1 34 -7 24 -8 32 -7 43 5 10 13 9 18 -10 33 -14 12 -18 20 -10 22 7 3 21
-5 31 -16 18 -21 18 -21 3 4 -9 14 -24 25 -34 25 -12 0 -17 8 -17 32 0 18 -6
38 -12 44 -7 7 -13 19 -13 27 0 12 -3 12 -15 2 -12 -10 -15 -10 -15 3 0 11 7
14 25 11 34 -6 31 2 -7 26 -18 11 -26 20 -18 20 13 0 13 2 0 9 -18 12 -33 3
-26 -16 3 -8 1 -11 -4 -8 -14 9 -12 52 3 58 6 3 -3 4 -21 3 -26 -3 -30 -1 -21
10 9 11 7 15 -5 20 -13 5 -14 9 -5 20 10 12 8 13 -6 8 -12 -5 -16 -4 -11 4 10
17 -10 24 -24 7 -9 -11 -7 -18 9 -32 24 -20 28 -38 7 -30 -10 4 -12 0 -9 -14
3 -10 9 -17 12 -14 4 2 8 -3 8 -12 0 -12 -7 -9 -24 11 -29 34 -30 24 -2 -20
11 -19 17 -39 13 -45 -4 -7 -3 -9 3 -6 5 3 17 -9 26 -28 13 -28 14 -34 2 -39
-9 -3 -28 18 -56 62 -39 62 -42 70 -43 144 -1 43 -3 78 -5 78 -3 0 -13 -7 -23
-17 -10 -9 -18 -12 -18 -6 0 5 11 16 25 23 14 7 25 17 25 22 0 18 28 5 92 -42z
m-3181 3 c-12 -20 -14 -14 -5 12 4 9 9 14 11 11 3 -2 0 -13 -6 -23z m-280
-145 c2 -26 0 -50 -4 -54 -4 -4 -7 19 -7 51 0 69 7 70 11 3z m99 -52 c0 -18
-17 8 -24 34 l-7 25 15 -25 c9 -14 15 -29 16 -34z m56 8 c-3 -8 -2 -12 4 -9 6
3 10 0 10 -8 0 -8 6 -17 14 -20 19 -7 26 -75 9 -89 -10 -8 -17 -2 -29 28 -23
54 -30 114 -14 114 7 0 10 -7 6 -16z m3259 -78 c24 -52 49 -112 54 -133 6 -21
17 -63 26 -93 8 -30 14 -66 14 -80 l-2 -25 -4 24 c-3 17 -7 20 -13 12 -5 -9
-9 -4 -12 13 -3 14 -1 23 3 20 5 -3 9 -1 9 5 0 5 -5 13 -10 16 -6 4 -10 12 -8
18 1 7 -4 31 -11 53 -11 34 -17 41 -35 37 -12 -3 -17 -1 -10 4 14 11 27 46 14
38 -10 -6 -14 7 -11 33 1 6 -2 12 -8 12 -5 0 -12 14 -16 30 -4 17 -11 30 -17
30 -5 0 -8 6 -5 13 2 6 0 24 -4 40 -14 50 1 28 46 -67z m74 -24 c5 -10 9 -27
7 -37 -2 -11 5 -28 14 -38 16 -17 23 -42 35 -127 4 -29 3 -28 -9 10 -7 25 -25
73 -40 108 -15 35 -24 67 -21 72 4 6 1 10 -4 10 -6 0 -11 5 -11 10 0 17 19 11
29 -8z m-3253 -78 c1 -11 7 -31 15 -44 7 -14 14 -27 15 -30 2 -10 45 -106 65
-147 12 -23 36 -52 54 -65 34 -23 40 -39 49 -131 2 -26 9 -54 16 -62 8 -10 8
-19 1 -34 -16 -28 -14 -51 4 -51 12 0 14 -8 10 -32 -11 -60 -13 -57 -40 67
-25 110 -82 259 -127 326 -33 50 -95 103 -123 105 -5 0 -29 -15 -52 -34 -24
-18 -43 -31 -43 -27 0 13 74 122 104 152 34 35 50 37 52 7z m-86 -145 c0 -5 4
-8 9 -5 5 3 6 -14 4 -38 -3 -26 -1 -46 6 -50 6 -4 11 -14 11 -22 0 -9 7 -23
16 -31 11 -12 14 -27 10 -52 -3 -20 -2 -31 2 -26 15 21 29 14 24 -11 -3 -19
-7 -22 -13 -12 -13 20 -11 3 3 -28 l13 -27 7 24 c6 19 7 17 5 -11 -1 -19 -6
-38 -12 -42 -11 -8 -17 -280 -5 -273 13 8 28 -17 35 -60 9 -46 41 -115 54
-115 5 0 2 15 -7 33 -22 41 -28 272 -8 264 7 -3 18 4 25 15 10 16 10 19 -1 12
-7 -4 -2 4 12 19 14 15 28 27 31 27 4 0 19 -19 35 -42 16 -24 33 -46 38 -49 5
-4 9 -32 9 -63 0 -31 4 -56 9 -56 6 0 7 -8 3 -17 -20 -54 -65 -249 -65 -285 0
-55 -11 -118 -19 -118 -4 0 -17 9 -28 19 -12 11 -23 18 -26 15 -13 -13 -64 27
-107 85 -118 157 -189 377 -205 637 l-7 112 32 63 c17 35 43 76 58 92 26 27
52 36 52 16z m243 -71 c17 -21 24 -68 9 -68 -13 0 -37 30 -57 68 l-16 34 23
-7 c13 -4 31 -16 41 -27z m2467 -137 c0 -13 -30 -22 -43 -14 -7 4 -2 10 13 14
14 4 26 7 28 8 1 1 2 -3 2 -8z m-2461 -194 c1 -5 -3 -5 -9 -2 -5 3 -10 16 -9
28 0 21 1 21 9 2 5 -11 9 -24 9 -28z m3224 -2 c-3 -9 -8 -14 -10 -11 -3 3 -2
9 2 15 9 16 15 13 8 -4z m-1018 -99 c40 -9 190 -104 181 -114 -3 -3 -16 4 -29
15 -37 34 -80 51 -163 65 -77 13 -136 10 -266 -16 -38 -7 -49 2 -25 22 19 16
130 34 185 31 28 -2 48 0 45 5 -5 8 13 6 72 -8z m760 -156 c3 -6 -1 -7 -9 -4
-18 7 -21 14 -7 14 6 0 13 -4 16 -10z m-1169 -88 c-31 -6 -40 13 -20 41 l19
24 10 -31 c9 -27 8 -31 -9 -34z m208 16 c18 -17 8 -48 -15 -48 -11 0 -19 5
-19 11 0 5 -4 7 -10 4 -16 -10 -12 7 7 27 19 21 20 22 37 6z m-2171 -287 c-2
-10 2 -25 10 -33 14 -14 34 -98 23 -98 -3 0 -10 19 -17 43 -6 23 -14 44 -18
47 -4 3 -15 27 -24 54 l-17 49 24 -22 c14 -13 22 -30 19 -40z m87 -71 c0 -11
-2 -20 -4 -20 -2 0 -6 9 -9 20 -3 11 -1 20 4 20 5 0 9 -9 9 -20z m57 -232 c-2
-13 -4 -3 -4 22 0 25 2 35 4 23 2 -13 2 -33 0 -45z m2768 -17 c-18 -37 -30
-40 -32 -9 -2 16 0 19 6 9 7 -10 10 -10 16 -1 4 7 1 17 -6 22 -11 8 -10 9 4 4
9 -3 17 0 17 6 0 6 3 9 6 6 3 -4 -2 -20 -11 -37z m-34 -42 c5 -3 0 -14 -12
-25 -21 -18 -22 -18 -16 -1 4 10 8 31 8 45 1 21 2 23 6 7 3 -11 9 -23 14 -26z
m-2541 -39 c0 -5 -2 -10 -4 -10 -3 0 -8 5 -11 10 -3 6 -1 10 4 10 6 0 11 -4
11 -10z m-13 -42 c-3 -8 -6 -5 -6 6 -1 11 2 17 5 13 3 -3 4 -12 1 -19z m2081
-13 c-3 -3 -9 2 -12 12 -6 14 -5 15 5 6 7 -7 10 -15 7 -18z m-2181 -17 c-3 -8
-6 -5 -6 6 -1 11 2 17 5 13 3 -3 4 -12 1 -19z m2227 -37 c-2 -3 -12 3 -22 13
-16 17 -16 18 5 5 12 -7 20 -15 17 -18z m-1505 -25 c9 -10 8 -15 -2 -19 -8 -3
-13 3 -13 14 0 23 0 23 15 5z m67 -65 c-7 -11 -76 -52 -76 -46 0 4 70 53 78
54 2 1 1 -3 -2 -8z m1446 -3 c3 -7 0 -30 -7 -51 -9 -31 -13 -35 -25 -25 -12
11 -12 10 -1 -4 15 -21 10 -53 -29 -163 -40 -113 -41 -116 -52 -109 -6 4 -8
-3 -4 -17 4 -17 2 -15 -8 6 -12 26 -15 27 -19 10 -4 -20 -4 -20 -2 0 2 11 12
45 24 75 22 58 51 164 50 183 0 7 -11 -19 -24 -56 -13 -38 -27 -76 -31 -85 -4
-10 -6 -20 -6 -24 1 -5 -3 -8 -9 -8 -6 0 -8 9 -4 20 14 43 -7 16 -45 -60 -32
-64 -43 -78 -57 -73 -10 3 -15 3 -11 -2 4 -4 3 -14 -3 -22 -6 -7 -9 -13 -5
-13 3 0 -3 -9 -14 -20 -11 -11 -20 -27 -20 -36 0 -8 -4 -12 -10 -9 -6 4 -7 -1
-3 -11 5 -14 3 -16 -11 -11 -10 4 -15 3 -11 -3 3 -6 1 -10 -5 -10 -7 0 -9 -7
-6 -17 4 -10 4 -14 0 -11 -9 9 -37 -19 -30 -30 3 -5 -1 -17 -8 -27 -10 -14
-15 -15 -21 -5 -5 8 -4 11 3 6 7 -4 10 3 8 19 -4 40 -14 40 -32 2 -10 -20 -22
-33 -27 -30 -6 4 -8 0 -4 -10 4 -12 2 -14 -10 -10 -13 5 -15 2 -10 -11 4 -10
3 -15 -3 -11 -6 3 -10 0 -11 -7 0 -10 -2 -10 -6 1 -4 11 -7 11 -14 0 -4 -7 -4
-20 1 -28 6 -12 2 -16 -16 -17 -23 -2 -28 5 -25 36 1 8 -7 2 -18 -14 -10 -16
-18 -34 -17 -40 2 -6 1 -8 -1 -3 -9 15 -22 6 -16 -10 5 -14 3 -16 -7 -6 -10 9
-18 6 -35 -16 -21 -24 -73 -43 -60 -20 4 5 1 9 -5 9 -6 0 -13 -7 -17 -15 -3
-9 -19 -23 -35 -31 -16 -8 -26 -20 -22 -26 4 -7 3 -8 -4 -4 -7 4 -17 -3 -24
-18 -6 -14 -15 -26 -20 -26 -5 0 -1 11 8 25 24 37 10 42 -15 6 -19 -27 -24
-29 -46 -19 -14 6 -25 15 -25 20 0 4 -5 8 -11 8 -5 0 -37 18 -70 41 -67 45
-115 63 -125 47 -4 -6 -22 -8 -42 -4 -21 3 -42 0 -51 -6 -13 -10 -14 -10 -3 2
16 19 15 27 -4 34 -12 5 -15 2 -10 -11 6 -15 4 -15 -14 2 -22 20 -20 25 -24
-47 -1 -9 -5 -20 -10 -25 -6 -5 -6 -2 -1 7 6 12 5 13 -5 3 -15 -14 -40 0 -40
21 0 7 -11 23 -25 36 -14 13 -25 21 -25 17 0 -21 -69 41 -95 85 -17 28 -37 53
-45 56 -10 2 -11 0 -4 -5 6 -4 14 -17 17 -28 7 -20 7 -20 -8 -1 -8 11 -15 16
-15 11 0 -5 -5 -4 -12 3 -7 7 -18 12 -26 12 -11 0 -12 -3 -3 -14 8 -9 8 -16 2
-20 -13 -8 -41 35 -51 77 -8 30 -8 30 -9 5 -1 -15 -6 -30 -13 -34 -7 -4 -8 -3
-4 4 4 7 2 20 -3 29 -6 10 -11 14 -11 10 0 -5 -7 -2 -15 7 -17 17 -20 30 -5
21 6 -3 10 -1 10 4 0 6 -4 11 -10 11 -5 0 -10 9 -10 21 0 11 -4 17 -10 14 -5
-3 -10 3 -10 14 0 12 5 21 11 21 6 0 8 8 5 18 -9 28 -9 74 -1 121 6 32 5 42
-3 37 -7 -4 -12 -17 -12 -28 0 -12 -3 -18 -7 -14 -9 8 39 156 51 156 4 0 6 -6
3 -14 -4 -9 3 -13 23 -12 20 1 26 5 22 16 -3 8 -2 12 3 8 4 -4 14 -3 22 3 10
9 24 8 56 -4 164 -61 357 -93 607 -102 211 -8 239 4 38 16 -197 11 -496 66
-531 97 -10 9 -15 23 -11 34 5 16 -5 23 -28 19 -13 -2 -9 6 9 20 9 8 14 9 10
2 -4 -7 1 -14 13 -18 13 -4 19 -14 17 -28 -1 -15 3 -21 13 -18 8 2 31 5 51 8
31 4 37 2 42 -16 4 -17 11 -20 38 -17 21 2 35 10 40 22 7 18 8 18 8 1 1 -16 6
-17 34 -12 17 4 37 12 44 17 6 5 13 5 16 1 3 -5 48 -7 101 -7 53 1 98 -2 101
-6 2 -4 23 -4 45 0 24 4 40 3 40 -2 0 -6 7 -8 15 -4 9 3 15 0 15 -10 0 -10 6
-14 15 -10 8 3 15 1 15 -4 0 -5 7 -7 15 -4 9 4 15 0 15 -8 0 -8 6 -15 14 -15
8 0 12 6 9 14 -3 7 2 13 11 13 9 0 16 -6 16 -14 0 -8 4 -17 8 -20 5 -3 6 8 4
25 -4 24 -1 29 17 29 11 0 21 -4 21 -10 0 -5 7 -10 16 -10 14 0 15 -2 3 -17
-13 -15 -12 -15 6 -6 11 6 67 23 125 38 109 27 290 101 290 117 0 5 5 6 10 3
6 -3 10 -1 10 6 0 10 3 10 12 1 6 -6 10 -13 7 -15 -24 -19 -316 -139 -398
-163 -8 -3 -12 -6 -9 -9 2 -2 46 9 97 25 59 19 99 27 108 21 23 -13 233 76
233 99 0 12 44 6 53 -7 13 -20 27 -15 26 10 0 21 -1 21 -9 2 -6 -14 -9 -16
-10 -5 -2 8 -2 19 -1 24 1 5 -4 4 -13 -3 -9 -7 -16 -8 -20 -2 -15 24 36 21 64
-4 20 -18 34 -7 19 15 -13 22 -11 40 5 40 8 0 16 -6 18 -12z m-1417 -18 c-3
-5 -12 -10 -18 -10 -7 0 -6 4 3 10 19 12 23 12 15 0z m-810 -78 c-3 -8 1 -22
8 -31 8 -9 19 -29 25 -46 111 -299 195 -459 295 -562 51 -54 69 -56 28 -4 -17
21 -31 42 -31 46 0 9 100 -116 111 -140 25 -53 67 -113 111 -158 15 -15 27
-31 26 -35 -3 -10 35 -72 43 -72 4 0 10 -13 14 -29 3 -16 19 -43 36 -62 16
-18 29 -38 29 -45 0 -6 7 -17 15 -24 18 -15 20 -35 3 -24 -7 4 -8 3 -4 -4 5
-9 13 -9 26 -2 15 8 18 7 15 -2 -3 -7 3 -25 12 -39 60 -89 99 -146 110 -156 6
-7 19 -31 30 -53 10 -22 24 -40 31 -40 19 0 14 -20 -5 -21 -12 -1 -10 -3 6 -8
14 -4 26 -12 29 -19 2 -7 -2 -10 -12 -6 -20 8 -20 5 0 -34 14 -30 44 -44 44
-22 0 6 -4 10 -10 10 -5 0 -10 5 -10 10 0 16 27 11 34 -6 6 -17 -9 -36 -36
-47 -12 -4 -18 -2 -18 8 0 9 -9 15 -21 15 -15 0 -19 -4 -15 -16 3 -9 6 -19 6
-24 0 -4 9 -6 20 -3 14 4 20 0 20 -10 0 -9 8 -20 17 -26 13 -7 17 -21 17 -51
-1 -28 2 -40 10 -37 7 3 23 -1 37 -9 13 -7 18 -13 11 -14 -7 0 -10 -5 -6 -11
3 -6 0 -15 -7 -20 -7 -4 -10 -11 -6 -15 4 -4 16 1 27 11 15 14 20 15 20 4 0
-8 3 -25 6 -39 5 -20 4 -22 -6 -10 -9 12 -10 10 -6 -12 4 -16 3 -28 -1 -28 -5
0 -8 -15 -9 -33 0 -17 -13 -70 -28 -116 -15 -46 -25 -85 -23 -87 4 -4 11 12
57 139 18 47 25 57 45 57 13 0 25 4 27 9 2 5 14 4 28 -1 15 -6 20 -12 13 -15
-23 -8 -15 -49 12 -63 14 -7 25 -17 25 -21 0 -5 7 -6 16 -2 14 5 15 3 5 -15
-15 -29 -23 -28 -43 6 -14 22 -18 23 -18 8 0 -10 10 -27 22 -37 23 -21 35 -24
40 -10 2 4 13 12 26 15 17 6 22 3 22 -9 0 -11 -5 -15 -15 -11 -11 4 -15 -1
-15 -19 0 -28 15 -33 24 -9 10 26 26 5 19 -26 -4 -24 -2 -30 11 -30 10 0 15
-4 11 -9 -3 -5 -1 -12 5 -16 5 -3 10 -20 10 -37 0 -24 3 -29 16 -24 11 4 15 2
12 -6 -3 -7 5 -24 18 -37 l23 -25 -6 37 c-4 24 -2 37 6 37 6 0 11 -11 11 -25
0 -18 5 -25 19 -25 11 0 23 -5 26 -10 4 -6 11 -7 17 -4 7 5 9 1 5 -9 -10 -28
7 -19 20 9 7 15 10 31 6 37 -3 5 1 13 8 18 19 12 32 11 24 -1 -8 -14 8 -13 22
1 6 6 9 18 6 25 -4 10 0 12 11 8 10 -4 16 -1 16 9 0 18 21 27 48 20 16 -4 21
-1 19 15 -1 15 -5 18 -13 11 -8 -6 -14 -6 -18 -1 -3 6 1 13 10 16 12 4 14 14
10 38 -5 25 -4 28 3 13 17 -37 24 -60 22 -72 -1 -7 3 -13 9 -13 5 0 10 -7 10
-16 0 -10 -6 -14 -15 -11 -8 4 -17 1 -21 -5 -4 -7 -3 -8 4 -4 7 4 12 2 12 -3
0 -6 -4 -11 -8 -11 -5 0 -32 -22 -60 -48 -29 -27 -52 -47 -52 -44 0 3 -9 -7
-20 -21 -11 -14 -20 -30 -20 -36 0 -6 -4 -11 -10 -11 -5 0 -25 -15 -43 -33
-19 -17 -76 -53 -128 -79 -129 -63 -243 -94 -364 -97 -33 -1 -95 -6 -138 -12
-43 -6 -97 -8 -120 -5 -63 10 -203 89 -298 167 -115 96 -349 321 -349 336 0 7
8 17 18 22 17 9 58 108 48 118 -3 3 -1 13 3 22 5 9 15 78 21 154 33 372 -89
714 -290 817 -22 11 -49 20 -61 20 -20 0 -21 4 -16 43 15 111 39 237 56 287
30 86 101 522 101 615 0 32 5 47 16 52 11 4 14 14 10 37 l-6 31 16 -34 c8 -18
13 -40 9 -49z m585 64 c0 -2 -7 -7 -16 -10 -8 -3 -12 -2 -9 4 6 10 25 14 25 6z
m328 -63 c-10 -2 -26 -2 -35 0 -10 3 -2 5 17 5 19 0 27 -2 18 -5z m42 -27 c0
-3 -4 -8 -10 -11 -5 -3 -10 -1 -10 4 0 6 5 11 10 11 6 0 10 -2 10 -4z m1420
-81 c-7 -9 -15 -13 -19 -10 -3 3 1 10 9 15 21 14 24 12 10 -5z m-2044 -22
c-10 -10 -19 5 -10 18 6 11 8 11 12 0 2 -7 1 -15 -2 -18z m-512 -50 c-9 -21
-17 -49 -19 -63 -1 -14 -11 -45 -23 -70 -77 -167 -112 -326 -114 -514 0 -102
-4 -147 -14 -163 -19 -31 -44 -30 -44 2 0 14 -6 25 -13 25 -23 0 -38 144 -26
242 12 103 60 260 106 353 48 94 113 186 127 178 6 -3 8 -2 3 2 -4 5 0 17 10
27 24 26 25 22 7 -19z m566 17 c0 -11 -4 -20 -10 -20 -5 0 -10 9 -10 20 0 11
5 20 10 20 6 0 10 -9 10 -20z m1688 -47 c-14 -34 -35 -58 -23 -28 4 11 10 28
12 38 3 9 9 17 14 17 5 0 3 -12 -3 -27z m252 -19 c0 -8 -19 -13 -24 -6 -3 5 1
9 9 9 8 0 15 -2 15 -3z m-1916 -83 c-7 -8 -21 44 -16 59 4 9 9 2 13 -20 4 -19
6 -37 3 -39z m-569 -18 c-3 -16 -11 -32 -16 -38 -10 -9 -3 38 8 58 10 17 15 5
8 -20z m2405 23 c0 -2 -8 -10 -17 -17 -16 -13 -17 -12 -4 4 13 16 21 21 21 13z
m58 -41 c-6 -14 -13 -23 -15 -21 -5 5 15 46 22 46 3 0 -1 -11 -7 -25z m-89
-42 c-6 -7 -15 -10 -20 -7 -13 8 -3 21 15 21 12 0 13 -4 5 -14z m-222 -95 c-3
-8 -6 -5 -6 6 -1 11 2 17 5 13 3 -3 4 -12 1 -19z m-1470 -90 c-3 -8 -6 -5 -6
6 -1 11 2 17 5 13 3 -3 4 -12 1 -19z m1437 6 c3 -8 2 -12 -4 -9 -6 3 -10 10
-10 16 0 14 7 11 14 -7z m-921 -119 c-3 -9 -8 -14 -10 -11 -3 3 -2 9 2 15 9
16 15 13 8 -4z m197 -50 c14 -8 19 -14 10 -14 -8 0 -24 6 -34 14 -25 19 -9 19
24 0z m49 -34 c7 -5 9 -11 4 -14 -4 -3 -17 1 -28 9 -21 16 0 20 24 5z m191 -5
c0 -2 -8 -10 -17 -17 -16 -13 -17 -12 -4 4 13 16 21 21 21 13z m638 -51 c-3
-3 -9 2 -12 12 -6 14 -5 15 5 6 7 -7 10 -15 7 -18z m-277 -79 c-7 -8 -10 -19
-7 -24 3 -5 -1 -9 -9 -9 -12 0 -11 5 2 28 9 16 19 26 21 24 3 -3 -1 -11 -7
-19z m348 -36 c21 -41 20 -50 -4 -26 -14 14 -31 66 -22 66 3 0 14 -18 26 -40z
m-2534 -102 c18 1 18 1 2 -6 -10 -4 -18 -11 -18 -15 1 -4 -2 -7 -6 -6 -16 2
-48 -97 -34 -105 4 -3 18 -26 32 -52 13 -26 41 -66 61 -88 52 -57 51 -56 76
-104 12 -23 22 -51 22 -62 0 -11 5 -19 11 -18 23 5 20 -22 -3 -31 -16 -7 -18
-10 -6 -10 9 -1 20 -6 24 -12 9 -15 -58 -1 -69 15 -4 7 -9 3 -13 -12 -5 -17
-10 -20 -19 -12 -7 6 -11 20 -8 30 4 15 0 20 -16 20 -12 0 -20 4 -17 9 3 5 -5
20 -19 32 -13 13 -25 30 -25 37 0 8 -9 25 -20 39 -11 14 -20 33 -21 42 0 12
-2 11 -9 -4 -10 -24 -11 162 -2 245 6 47 10 55 26 52 14 -3 17 1 12 13 -4 11
-2 14 7 8 6 -4 21 -7 32 -5z m2575 -8 c0 -5 -2 -10 -4 -10 -3 0 -8 5 -11 10
-3 6 -1 10 4 10 6 0 11 -4 11 -10z m-196 -86 c3 -8 2 -12 -4 -9 -6 3 -10 10
-10 16 0 14 7 11 14 -7z m33 -276 c-3 -8 -6 -5 -6 6 -1 11 2 17 5 13 3 -3 4
-12 1 -19z m-1113 -24 c3 -8 2 -12 -4 -9 -6 3 -10 10 -10 16 0 14 7 11 14 -7z
m1081 -63 c-10 -9 -25 22 -24 49 0 23 1 22 15 -9 8 -19 12 -37 9 -40z m12 47
c-3 -8 -6 -5 -6 6 -1 11 2 17 5 13 3 -3 4 -12 1 -19z m-2211 -85 c-10 -10 -19
5 -10 18 6 11 8 11 12 0 2 -7 1 -15 -2 -18z m2154 -44 c0 -6 -4 -7 -10 -4 -5
3 -10 11 -10 16 0 6 5 7 10 4 6 -3 10 -11 10 -16z m-940 7 c0 -11 -19 -15 -25
-6 -3 5 1 10 9 10 9 0 16 -2 16 -4z m59 -87 c-16 -10 -23 -4 -14 10 3 6 11 8
17 5 6 -4 5 -9 -3 -15z m828 -1 c-3 -8 -6 -5 -6 6 -1 11 2 17 5 13 3 -3 4 -12
1 -19z m-856 -74 c-20 -45 -27 -43 -23 5 3 31 7 38 21 34 17 -4 17 -7 2 -39z
m52 1 c-3 -9 -8 -14 -10 -11 -3 3 -2 9 2 15 9 16 15 13 8 -4z m-1473 -60 c0
-5 -5 -3 -10 5 -5 8 -10 20 -10 25 0 6 5 3 10 -5 5 -8 10 -19 10 -25z m1452
-20 c-2 -14 -6 -25 -8 -25 -2 0 -4 11 -4 25 0 14 4 25 9 25 4 0 6 -11 3 -25z
m29 -58 c-10 -9 -11 -8 -5 6 3 10 9 15 12 12 3 -3 0 -11 -7 -18z m38 -31 c10
-12 9 -14 -5 -12 -10 2 -20 8 -22 14 -5 17 13 15 27 -2z m-39 -15 c0 -5 -7
-11 -15 -15 -15 -5 -20 5 -8 17 9 10 23 9 23 -2z m858 -46 c-6 -14 -13 -24
-14 -22 -6 6 9 47 17 47 5 0 3 -11 -3 -25z m-763 -5 c-3 -5 -12 -10 -18 -10
-7 0 -6 4 3 10 19 12 23 12 15 0z m-1396 -164 c-3 -3 -11 5 -18 17 -13 21 -12
21 5 5 10 -10 16 -20 13 -22z m1607 -12 c-3 -9 -6 -17 -6 -20 0 -2 -7 -1 -15
2 -11 5 -12 9 -2 20 16 18 30 17 23 -2z m79 5 c11 -16 1 -19 -13 -3 -7 8 -8
14 -3 14 5 0 13 -5 16 -11z m135 1 c0 -5 -4 -10 -10 -10 -5 0 -10 5 -10 10 0
6 5 10 10 10 6 0 10 -4 10 -10z m-184 -24 c0 -15 -5 -21 -10 -16 -5 5 -6 16
-3 24 9 23 15 19 13 -8z m-1390 -18 c58 -66 57 -77 -1 -18 -21 22 -34 40 -29
40 6 0 19 -10 30 -22z m1308 -13 c14 -11 17 -20 10 -42 l-8 -28 -5 34 c-4 21
-13 37 -26 42 -13 5 -14 8 -5 8 8 0 23 -6 34 -14z m128 -7 c-7 -7 -12 -8 -12
-2 0 14 12 26 19 19 2 -3 -1 -11 -7 -17z m-62 2 c0 -5 -4 -10 -10 -10 -5 0
-10 5 -10 10 0 6 5 10 10 10 6 0 10 -4 10 -10z m105 -9 c3 -5 1 -12 -5 -16 -5
-3 -10 1 -10 9 0 18 6 21 15 7z m35 5 c0 -3 -4 -8 -10 -11 -5 -3 -10 -1 -10 4
0 6 5 11 10 11 6 0 10 -2 10 -4z m-76 -31 c-7 -17 -20 -20 -29 -6 -3 5 3 12
12 14 10 3 19 5 20 6 1 0 0 -6 -3 -14z m-34 -23 c14 -14 13 -15 -5 -8 -11 4
-27 9 -34 10 -8 2 -17 8 -19 15 -6 17 36 4 58 -17z m20 -39 c0 -7 -9 -13 -20
-13 -11 0 -20 6 -20 14 0 9 9 14 20 13 11 -1 20 -7 20 -14z m-1630 -77 c0 -3
-4 -8 -10 -11 -5 -3 -10 -1 -10 4 0 6 5 11 10 11 6 0 10 -2 10 -4z m151 -371
c5 4 6 -1 2 -10 -5 -13 -7 -14 -14 -3 -5 7 -8 18 -8 23 0 6 3 4 6 -3 2 -6 9
-10 14 -7z m-2331 -65 c0 -5 -7 -10 -16 -10 -8 0 -12 5 -9 10 3 6 10 10 16 10
5 0 9 -4 9 -10z m-10 -46 c0 -8 -4 -12 -10 -9 -5 3 -10 10 -10 16 0 5 5 9 10
9 6 0 10 -7 10 -16z m2347 -36 c-3 -8 -6 -5 -6 6 -1 11 2 17 5 13 3 -3 4 -12
1 -19z m4146 -18 c-3 -11 -9 -20 -14 -20 -10 0 -12 24 -2 33 13 13 21 7 16
-13z m-4118 -10 c3 -6 -1 -7 -9 -4 -18 7 -21 14 -7 14 6 0 13 -4 16 -10z m-12
-35 c-3 -9 -8 -14 -10 -11 -3 3 -2 9 2 15 9 16 15 13 8 -4z m4043 -190 c-1
-33 -16 -33 -16 0 0 14 4 25 9 25 5 0 8 -11 7 -25z m-29 -22 c-3 -10 -5 -4 -5
12 0 17 2 24 5 18 2 -7 2 -21 0 -30z m-3307 17 c0 -5 -4 -10 -9 -10 -6 0 -13
5 -16 10 -3 6 1 10 9 10 9 0 16 -4 16 -10z m3336 -63 c4 -32 -17 -108 -28
-101 -5 3 -7 12 -4 20 3 7 1 16 -5 20 -6 3 -8 12 -5 19 3 8 0 15 -6 17 -6 2 0
16 13 30 26 29 31 28 35 -5z m-3319 -9 c-3 -8 -6 -5 -6 6 -1 11 2 17 5 13 3
-3 4 -12 1 -19z m-62 -7 c3 -5 1 -12 -5 -16 -17 -11 -11 -23 13 -27 20 -3 19
-4 -7 -10 -26 -5 -28 -4 -22 22 3 18 1 30 -7 34 -7 2 -5 5 5 5 9 1 19 -3 23
-8z m118 -26 c7 -16 -8 -29 -23 -20 -10 6 -2 35 10 35 4 0 10 -7 13 -15z m50
-52 c-7 -2 -21 -2 -30 0 -10 3 -4 5 12 5 17 0 24 -2 18 -5z m-3256 -135 c-3
-8 -6 -5 -6 6 -1 11 2 17 5 13 3 -3 4 -12 1 -19z"/>
<path d="M4308 7483 c7 -3 16 -2 19 1 4 3 -2 6 -13 5 -11 0 -14 -3 -6 -6z"/>
<path d="M4355 7481 c-4 -7 5 -11 22 -11 16 0 33 -4 39 -9 18 -17 61 -21 73
-7 10 12 4 15 -31 21 -24 3 -55 8 -70 11 -14 3 -29 0 -33 -5z"/>
<path d="M4500 7450 c-11 -7 -12 -12 -4 -20 16 -16 83 -20 91 -6 3 6 3 8 -2 4
-4 -4 -20 1 -35 12 -32 23 -30 23 -50 10z"/>
<path d="M4626 7027 c3 -10 9 -15 12 -12 3 3 0 11 -7 18 -10 9 -11 8 -5 -6z"/>
<path d="M4230 6700 c0 -5 5 -10 11 -10 5 0 7 5 4 10 -3 6 -8 10 -11 10 -2 0
-4 -4 -4 -10z"/>
<path d="M4180 6685 c-7 -8 -9 -15 -6 -15 4 0 14 7 22 15 9 8 11 15 6 15 -5 0
-15 -7 -22 -15z"/>
<path d="M4265 6680 c3 -5 8 -10 11 -10 2 0 4 5 4 10 0 6 -5 10 -11 10 -5 0
-7 -4 -4 -10z"/>
<path d="M4037 6663 c-4 -3 -7 -11 -7 -17 0 -6 5 -5 12 2 6 6 9 14 7 17 -3 3
-9 2 -12 -2z"/>
<path d="M4240 6660 c0 -5 5 -10 11 -10 5 0 7 5 4 10 -3 6 -8 10 -11 10 -2 0
-4 -4 -4 -10z"/>
<path d="M3960 6650 c-13 -8 -12 -10 3 -10 9 0 17 5 17 10 0 12 -1 12 -20 0z"/>
<path d="M4183 6653 c-7 -2 -13 -9 -13 -14 0 -6 8 -6 19 1 13 7 21 7 24 0 3
-6 4 -5 3 2 -3 14 -16 18 -33 11z"/>
<path d="M4110 6629 c0 -5 5 -7 10 -4 6 3 10 8 10 11 0 2 -4 4 -10 4 -5 0 -10
-5 -10 -11z"/>
<path d="M4151 6624 c0 -11 3 -14 6 -6 3 7 2 16 -1 19 -3 4 -6 -2 -5 -13z"/>
<path d="M3951 6609 c-1 -9 7 -23 17 -30 15 -12 16 -12 6 1 -6 8 -14 22 -17
30 -5 13 -6 12 -6 -1z"/>
<path d="M4170 6611 c0 -6 4 -13 10 -16 6 -3 7 1 4 9 -7 18 -14 21 -14 7z"/>
<path d="M3445 5946 c-27 -7 -64 -20 -82 -29 -61 -32 -162 -108 -183 -137 -11
-16 -30 -32 -41 -35 -12 -4 -18 -13 -15 -21 3 -7 1 -16 -4 -19 -6 -4 -10 -14
-10 -23 0 -11 6 -7 19 13 10 17 27 37 37 47 27 23 122 49 176 47 24 -1 50 1
56 5 6 3 14 1 17 -5 5 -7 27 -8 66 -4 40 5 59 3 59 -4 0 -12 174 -129 323
-215 53 -32 95 -61 92 -66 -3 -6 0 -7 8 -4 8 3 20 -2 27 -11 11 -13 9 -15 -9
-15 -18 0 -21 -4 -16 -20 6 -18 3 -19 -44 -16 -47 4 -50 3 -48 -17 1 -12 7
-26 12 -30 10 -9 3 -7 -65 19 -19 7 -56 13 -82 14 -26 0 -49 4 -52 9 -3 4 -33
14 -67 20 -103 21 -371 -26 -439 -76 -48 -36 -60 -52 -60 -84 0 -35 20 -49 34
-24 18 31 54 65 69 65 10 0 16 -15 19 -44 3 -24 16 -59 29 -77 l24 -34 -33 24
c-41 29 -53 23 -13 -7 74 -54 208 -109 322 -132 64 -12 206 -7 221 8 7 7 -9 9
-49 5 -62 -6 -259 26 -317 52 l-31 13 43 1 c112 2 168 71 146 180 -5 26 -9 29
-18 17 -18 -24 -65 -31 -72 -12 -8 21 -4 24 27 30 13 2 23 9 21 15 -3 14 67
15 105 0 65 -24 211 -184 199 -216 -4 -9 -1 -11 6 -7 7 5 9 2 5 -9 -4 -12 -2
-14 10 -10 12 5 14 3 8 -7 -5 -8 -4 -11 3 -6 6 3 22 2 36 -3 20 -8 24 -7 19 5
-3 8 0 21 7 29 20 25 -105 192 -178 237 -18 11 -31 22 -30 24 2 2 28 -3 57
-11 66 -17 110 -51 152 -116 19 -28 35 -46 37 -40 5 16 42 13 48 -4 4 -8 12
-15 20 -15 19 0 18 16 -2 24 -8 3 -12 11 -8 17 5 9 10 8 18 -2 14 -17 51 -39
67 -39 8 0 8 5 -1 15 -11 13 -10 14 4 9 12 -5 15 -2 10 10 -7 19 -16 20 -32 4
-9 -9 -12 -9 -12 0 0 7 5 12 11 12 6 0 9 6 6 13 -2 6 -10 11 -16 9 -8 -1 -9 2
-5 10 13 20 15 48 4 48 -5 0 -7 7 -4 15 4 8 1 15 -6 15 -9 0 -10 3 -1 14 8 10
6 19 -10 40 -11 14 -16 26 -10 26 6 0 11 -6 11 -12 1 -8 6 -6 14 5 15 19 47
22 63 6 28 -28 102 30 144 112 33 65 71 269 49 269 -5 0 -10 -17 -10 -38 0
-72 -51 -207 -100 -262 -23 -27 -18 -11 12 32 26 38 22 54 -6 21 -20 -23 -26
-25 -39 -15 -9 7 -37 21 -64 31 -26 10 -100 52 -164 94 -64 42 -153 98 -197
125 -45 27 -78 52 -75 56 4 3 -1 6 -10 6 -22 0 -87 31 -87 42 0 4 -10 8 -22 8
-19 0 -20 2 -8 10 22 14 -63 11 -125 -4z m135 -48 c-15 -5 -27 -5 -34 2 -8 8
-6 9 7 5 9 -4 17 -2 17 4 0 6 7 8 17 4 14 -5 12 -8 -7 -15z m86 -45 c-10 -11
-36 -12 -36 -2 0 5 10 9 22 9 12 0 18 -3 14 -7z m-51 -13 c-3 -5 -14 -10 -23
-10 -15 0 -15 2 -2 10 20 13 33 13 25 0z m-48 -16 c-3 -3 -12 -4 -19 -1 -8 3
-5 6 6 6 11 1 17 -2 13 -5z m161 -7 c20 -12 19 -13 -24 -14 -42 -2 -44 0 -28
12 23 17 23 17 52 2z m78 -56 c15 -12 23 -21 18 -21 -5 0 -4 -4 3 -8 9 -6 -65
-7 -184 -3 -12 1 -34 11 -48 24 l-26 22 105 3 c95 3 108 2 132 -17z m121 -366
c-19 -14 -12 -26 9 -18 22 8 29 -26 8 -45 -17 -16 -17 -16 -4 1 10 14 10 21 2
29 -9 9 -12 7 -12 -7 0 -17 -2 -18 -10 -5 -5 8 -10 11 -10 7 0 -5 -5 -5 -10
-2 -7 4 -6 14 2 28 7 12 11 25 10 29 -1 4 6 4 15 1 15 -6 15 -7 0 -18z m56
-126 c-8 -8 -13 -7 -18 2 -5 8 -4 10 3 5 7 -4 12 -2 12 5 0 7 3 9 7 6 4 -4 2
-12 -4 -18z m-523 -69 c12 -8 13 -11 1 -19 -11 -7 -11 -9 0 -14 8 -3 -3 -6
-23 -6 -30 -1 -38 3 -38 17 0 32 28 43 60 22z m70 -5 c0 -2 -10 -9 -22 -15
-22 -11 -22 -10 -4 4 21 17 26 19 26 11z"/>
<path d="M3989 5213 c-13 -16 -12 -17 4 -4 16 13 21 21 13 21 -2 0 -10 -8 -17
-17z"/>
<path d="M4675 5220 c-3 -5 -1 -10 4 -10 6 0 11 5 11 10 0 6 -2 10 -4 10 -3 0
-8 -4 -11 -10z"/>
<path d="M4082 5207 c18 -19 38 -22 38 -7 0 6 -4 10 -9 10 -5 0 -18 3 -28 7
-17 6 -17 6 -1 -10z"/>
<path d="M4757 5203 c-4 -3 -7 -11 -7 -17 0 -6 5 -5 12 2 6 6 9 14 7 17 -3 3
-9 2 -12 -2z"/>
<path d="M3980 5165 c0 -8 2 -15 4 -15 2 0 6 7 10 15 3 8 1 15 -4 15 -6 0 -10
-7 -10 -15z"/>
<path d="M3952 5140 c-7 -11 -8 -20 -3 -20 9 0 24 30 18 36 -1 2 -8 -6 -15
-16z"/>
<path d="M3805 5039 c-38 -11 -82 -22 -97 -25 -16 -4 -28 -10 -28 -15 0 -5 1
-9 3 -9 15 1 190 50 194 54 14 14 -7 13 -72 -5z"/>
<path d="M4355 4844 c30 -23 116 -66 122 -60 3 2 -6 10 -19 17 -12 6 -25 15
-28 18 -6 8 -78 41 -88 41 -4 0 2 -8 13 -16z"/>
<path d="M2780 4731 c0 -11 -4 -23 -10 -26 -5 -3 -10 -14 -9 -23 0 -11 2 -12
6 -4 2 6 9 10 14 6 9 -5 13 16 10 45 -2 7 2 10 8 6 6 -3 11 -1 11 4 0 6 -7 11
-15 11 -8 0 -15 -9 -15 -19z"/>
<path d="M2757 4653 c-4 -3 -7 -11 -7 -17 0 -6 5 -5 12 2 6 6 9 14 7 17 -3 3
-9 2 -12 -2z"/>
<path d="M2758 4610 c-16 -14 -28 -29 -28 -32 0 -4 14 6 32 22 17 16 30 31 27
33 -2 2 -16 -9 -31 -23z"/>
<path d="M2730 4510 c0 -5 5 -10 11 -10 5 0 7 5 4 10 -3 6 -8 10 -11 10 -2 0
-4 -4 -4 -10z"/>
<path d="M2725 4466 c0 -18 3 -22 12 -14 6 5 9 16 6 24 -8 22 -18 17 -18 -10z"/>
<path d="M2781 4449 c-6 -18 -9 -34 -7 -36 2 -2 9 10 15 28 6 18 9 34 7 36 -2
2 -9 -10 -15 -28z"/>
<path d="M5231 4354 c0 -11 3 -14 6 -6 3 7 2 16 -1 19 -3 4 -6 -2 -5 -13z"/>
<path d="M2826 4254 c-9 -24 -7 -28 9 -14 17 14 20 30 6 30 -5 0 -12 -7 -15
-16z"/>
<path d="M2837 4205 c-4 -8 -2 -17 3 -20 6 -4 10 3 10 14 0 25 -6 27 -13 6z"/>
<path d="M5025 4180 c3 -5 8 -10 11 -10 2 0 4 5 4 10 0 6 -5 10 -11 10 -5 0
-7 -4 -4 -10z"/>
<path d="M2827 4150 c-3 -11 -1 -20 4 -20 5 0 9 9 9 20 0 11 -2 20 -4 20 -2 0
-6 -9 -9 -20z"/>
<path d="M3308 4128 c-52 -30 -48 -41 5 -16 23 12 53 24 67 29 24 7 24 7 -5 8
-16 0 -47 -9 -67 -21z"/>
<path d="M3485 4120 c-3 -5 0 -10 7 -10 10 0 9 -3 -2 -10 -8 -5 -12 -11 -9
-14 3 -3 16 2 28 11 18 12 20 17 10 24 -18 11 -27 11 -34 -1z"/>
<path d="M3251 4083 c-1 -7 -6 -13 -12 -13 -15 0 -39 -26 -32 -34 4 -3 1 -6
-6 -6 -7 0 -10 -4 -7 -9 8 -13 68 48 62 63 -3 7 -5 7 -5 -1z"/>
<path d="M5120 4001 c0 -7 -4 -9 -10 -6 -5 3 -10 1 -10 -4 0 -6 4 -11 9 -11
13 0 25 20 17 27 -3 4 -6 1 -6 -6z"/>
<path d="M4906 3713 c-6 -14 -5 -15 5 -6 7 7 10 15 7 18 -3 3 -9 -2 -12 -12z"/>
<path d="M2867 6360 c-16 -20 -12 -27 8 -12 9 6 19 32 12 32 -1 0 -10 -9 -20
-20z"/>
<path d="M2775 6330 c-3 -5 -12 -7 -20 -3 -8 3 -15 0 -15 -6 0 -6 -8 -11 -17
-11 -14 0 -15 -2 -4 -12 11 -10 14 -10 18 0 3 6 10 12 18 12 7 0 18 7 25 15 7
8 10 15 7 15 -3 0 -8 -4 -12 -10z"/>
<path d="M5590 6156 c0 -2 7 -9 15 -16 9 -7 15 -8 15 -2 0 5 -7 12 -15 16 -8
3 -15 4 -15 2z"/>
<path d="M5840 5755 c-8 -9 -8 -15 -2 -15 12 0 26 19 19 26 -2 2 -10 -2 -17
-11z"/>
<path d="M2442 5000 c0 -14 2 -19 5 -12 2 6 2 18 0 25 -3 6 -5 1 -5 -13z"/>
<path d="M4231 3854 c0 -11 3 -14 6 -6 3 7 2 16 -1 19 -3 4 -6 -2 -5 -13z"/>
<path d="M4090 3840 c0 -5 5 -10 10 -10 6 0 10 5 10 10 0 6 -4 10 -10 10 -5 0
-10 -4 -10 -10z"/>
<path d="M4260 3634 c-8 -3 -80 -9 -160 -14 l-145 -9 158 4 c100 1 163 7 170
14 11 11 5 12 -23 5z"/>
<path d="M3300 3620 c1 -18 29 -70 30 -54 0 7 -7 25 -15 40 -8 16 -15 22 -15
14z"/>
<path d="M3310 3516 c0 -8 7 -17 16 -20 25 -9 26 -2 4 17 -16 13 -20 14 -20 3z"/>
<path d="M4031 3174 c0 -11 3 -14 6 -6 3 7 2 16 -1 19 -3 4 -6 -2 -5 -13z"/>
<path d="M3441 2624 c0 -11 3 -14 6 -6 3 7 2 16 -1 19 -3 4 -6 -2 -5 -13z"/>
<path d="M3465 2580 c3 -5 10 -10 16 -10 5 0 9 5 9 10 0 6 -7 10 -16 10 -8 0
-12 -4 -9 -10z"/>
<path d="M3480 2550 c0 -5 5 -10 10 -10 6 0 10 5 10 10 0 6 -4 10 -10 10 -5 0
-10 -4 -10 -10z"/>
<path d="M3510 2521 c0 -6 4 -13 10 -16 6 -3 7 1 4 9 -7 18 -14 21 -14 7z"/>
<path d="M3570 2350 c0 -5 7 -10 15 -10 8 0 15 5 15 10 0 6 -7 10 -15 10 -8 0
-15 -4 -15 -10z"/>
<path d="M3810 1960 c0 -5 4 -10 9 -10 6 0 13 5 16 10 3 6 -1 10 -9 10 -9 0
-16 -4 -16 -10z"/>
<path d="M3981 1650 c0 -8 4 -24 9 -35 5 -13 9 -14 9 -5 0 8 -4 24 -9 35 -5
13 -9 14 -9 5z"/>
<path d="M4011 1624 c0 -11 3 -14 6 -6 3 7 2 16 -1 19 -3 4 -6 -2 -5 -13z"/>
<path d="M4206 1611 c-4 -7 -5 -15 -2 -18 9 -9 19 4 14 18 -4 11 -6 11 -12 0z"/>
<path d="M4131 1564 c0 -11 3 -14 6 -6 3 7 2 16 -1 19 -3 4 -6 -2 -5 -13z"/>
<path d="M3605 7350 c-16 -7 -17 -9 -3 -9 9 -1 20 4 23 9 7 11 7 11 -20 0z"/>
<path d="M3070 7129 c0 -5 5 -7 10 -4 6 3 10 8 10 11 0 2 -4 4 -10 4 -5 0 -10
-5 -10 -11z"/>
<path d="M2950 7100 c0 -5 5 -10 11 -10 5 0 7 5 4 10 -3 6 -8 10 -11 10 -2 0
-4 -4 -4 -10z"/>
<path d="M2821 7054 c0 -11 3 -14 6 -6 3 7 2 16 -1 19 -3 4 -6 -2 -5 -13z"/>
<path d="M5317 6984 c9 -18 25 -36 34 -42 15 -9 15 -8 5 13 -6 13 -13 22 -15
20 -2 -2 -12 6 -22 18 -19 22 -19 22 -2 -9z"/>
<path d="M5404 6937 c16 -20 30 -37 33 -37 7 0 -36 58 -49 66 -7 4 1 -9 16
-29z"/>
<path d="M5380 6844 c0 -8 5 -12 10 -9 6 3 10 10 10 16 0 5 -4 9 -10 9 -5 0
-10 -7 -10 -16z"/>
<path d="M2409 6833 c-13 -16 -12 -17 4 -4 16 13 21 21 13 21 -2 0 -10 -8 -17
-17z"/>
<path d="M2536 6764 c-4 -9 -4 -19 -1 -22 2 -3 7 3 11 12 4 9 4 19 1 22 -2 3
-7 -3 -11 -12z"/>
<path d="M5487 6683 c-4 -3 -7 -11 -7 -17 0 -6 5 -5 12 2 6 6 9 14 7 17 -3 3
-9 2 -12 -2z"/>
<path d="M2270 6419 c0 -5 5 -7 10 -4 6 3 10 8 10 11 0 2 -4 4 -10 4 -5 0 -10
-5 -10 -11z"/>
<path d="M360 1743 c-26 -4 -110 -33 -110 -38 0 -1 -13 -47 -29 -101 -65 -219
-160 -638 -148 -650 2 -3 12 26 21 63 9 37 35 140 59 228 24 88 59 215 77 283
26 96 38 127 56 139 25 16 125 42 165 43 33 0 57 25 33 34 -16 6 -82 6 -124
-1z"/>
<path d="M6550 1415 c-17 -10 -20 -14 -9 -15 9 0 22 7 29 15 15 18 12 18 -20
0z"/>
<path d="M360 1229 c0 -5 5 -7 10 -4 6 3 10 8 10 11 0 2 -4 4 -10 4 -5 0 -10
-5 -10 -11z"/>
<path d="M6810 730 c0 -5 5 -10 11 -10 5 0 7 5 4 10 -3 6 -8 10 -11 10 -2 0
-4 -4 -4 -10z"/>
<path d="M232 560 c0 -14 2 -19 5 -12 2 6 2 18 0 25 -3 6 -5 1 -5 -13z"/>
<path d="M3478 533 c6 -2 18 -2 25 0 6 3 1 5 -13 5 -14 0 -19 -2 -12 -5z"/>
<path d="M241 514 c0 -11 3 -14 6 -6 3 7 2 16 -1 19 -3 4 -6 -2 -5 -13z"/>
<path d="M3878 234 c-3 -3 -4 -14 -1 -25 6 -22 33 -26 33 -5 0 16 -24 39 -32
30z"/>
</g>
</svg>
